<?xml version="1.0" standalone="no"?>
<!DOCTYPE svg PUBLIC "-//W3C//DTD SVG 1.1//EN" "http://www.w3.org/Graphics/SVG/1.1/DTD/svg11.dtd" >
<!--
2013-9-30: Created.
-->
<svg>
<metadata>
Created by iconfont
</metadata>
<defs>

<font id="iconfont" horiz-adv-x="1024" >
  <font-face
    font-family="iconfont"
    font-weight="500"
    font-stretch="normal"
    units-per-em="1024"
    ascent="896"
    descent="-128"
  />
    <missing-glyph />
    
    <glyph glyph-name="shuaxin" unicode="&#58986;" d="M924.073 346.306c-9.615-49.7-23.367-94.369-41.342-133.915-61.746-134.81-167.166-205.539-316.357-212.101-70.733-2.966-137.509 6.92-200.42 29.659v0.898l-27.862-70.102c-5.392-9.616-11.414-16.176-17.972-19.774-6.563-3.596-12.763-5.211-18.426-4.942-5.663 0.269-11.414 1.798-17.077 4.493-5.661 2.697-9.617 4.763-11.684 6.292-2.066 1.527-3.775 2.876-4.943 4.044L126.889 190.822c-3.596 6.562-5.661 12.85-6.291 18.874-0.63 6.022-0.271 11.054 0.898 15.278s3.327 8.09 6.293 11.685a65.475 65.475 0 0 0 8.988 8.988c2.966 2.425 6.291 4.492 9.886 6.291 3.594 1.798 6.022 2.876 7.189 3.146 1.168 0.268 2.066 0.716 2.695 1.347l246.256 65.609c13.212 2.966 23.638 3.775 31.456 2.245 7.819-1.526 14.2-3.325 19.323-5.39 5.123-2.068 8.718-5.664 10.785-10.786 2.067-5.123 3.415-9.436 4.045-13.032 0.628-3.596 0.628-7.817 0-12.581-0.63-4.761-1.169-7.907-1.797-9.439-0.63-1.526-0.899-2.512-0.899-3.145l-28.76-70.102c50.959-18.603 99.041-30.108 144.248-34.6 45.206-4.493 83.763-3.417 115.486 3.146 31.728 6.562 61.295 17.346 88.527 32.354 27.232 15.009 48.803 29.839 64.709 44.488 15.908 14.65 30.108 30.825 42.69 48.531 12.58 17.704 20.49 29.839 23.815 36.399 3.328 6.56 5.844 11.951 7.642 16.178zM99.927 437.977c13.21 58.687 31.726 110.274 55.722 154.585 68.932 124.027 178.22 184.51 328.041 181.546 66.507-1.169 126.992-12.853 181.545-35.053l29.658 69.205c4.223 6.56 8.718 11.863 13.482 15.729 4.763 3.865 9.257 6.29 13.48 7.187a37.144 37.144 0 0 0 13.032 0.451c4.492-0.629 8.358-1.618 11.684-3.145 3.325-1.527 6.563-3.326 9.887-5.392 3.324-2.067 5.212-3.415 5.841-4.045l2.697-2.697 135.71-242.659c2.969-7.19 4.764-13.751 5.394-19.774 0.628-6.022 0.269-11.054-0.9-15.278-1.167-4.223-3.415-8.089-6.739-11.684-3.327-3.593-6.472-6.47-9.436-8.537a79.843 79.843 0 0 0-9.888-5.842l-7.189-3.596c-1.167-0.627-2.066-0.898-2.695-0.898l-248.052-59.318c-16.808-2.428-30.288-2.068-40.443 0.898-10.156 2.967-16.805 7.01-19.773 12.133-2.966 5.123-4.495 11.234-4.495 18.424 0 7.19 0.27 12.312 0.902 15.277 0.627 2.967 1.525 5.392 2.696 7.19l30.559 69.205c-50.33 19.771-98.233 32.354-143.799 37.746-45.566 5.392-84.034 5.392-115.489 0-31.455-5.391-61.112-15.277-88.977-29.66-27.861-14.378-49.879-28.758-66.056-43.139-16.178-14.382-30.828-30.287-44.039-47.633-13.212-17.346-21.569-29.389-25.165-35.95-3.6-6.559-6.027-11.683-7.195-15.276z"  horiz-adv-x="1024" />

    
    <glyph glyph-name="shuaxin1" unicode="&#59050;" d="M644.096 569.344l-167.936 167.936v-115.712c-145.408-18.432-261.12-141.824-261.12-294.912 0-153.088 115.712-275.968 261.12-294.912v74.752c-104.448 18.432-186.368 108.032-186.368 220.16s81.92 201.216 186.368 220.16v-145.408l167.936 167.936z m163.84-205.312c-7.68 52.224-26.112 100.864-59.904 145.408L696.32 457.728c18.432-29.696 33.792-59.904 37.376-93.184l74.24-0.512z m-257.024-257.024v-74.752c52.224 7.68 100.864 26.112 145.408 59.904l-52.224 52.224c-30.208-18.944-59.904-33.792-93.184-37.376m145.408 89.6l52.224-52.224c33.792 45.056 55.808 93.184 59.904 145.408h-74.752c-4.096-33.792-18.944-63.488-37.376-93.184"  horiz-adv-x="1024" />

    
    <glyph glyph-name="huabanbeifen" unicode="&#58987;" d="M0 896h892.717949c72.507077 0 131.282051-58.774974 131.282051-131.282051v-892.717949H131.282051C58.774974-128 0-69.225026 0 3.282051V896zM674.619077 438.088205h-95.232V580.923077h-142.834872v-142.834872H341.333333l166.636308-166.636308L674.619077 438.088205zM341.333333 223.835897v-47.616h333.285744V223.835897H341.333333z"  horiz-adv-x="1024" />

    
    <glyph glyph-name="youxiang" unicode="&#58901;" d="M958.06 646.675v-502.21c0-5.01-0.603-9.994-1.616-14.903l-0.013-0.066c-0.055-0.273-0.112-0.547-0.169-0.82-7.156-34.166-37.362-58.59-72.27-58.59H151.186c-25.67 0-50.35 10.664-67.387 29.868-0.484 0.545-0.963 1.098-1.44 1.656a81.745 81.745 0 0 0-3.367 4.242C68.29 120.281 62.767 137.9 62.767 155.865V632.991c0 28.369 18.407 53.547 45.517 61.907 0.223 0.068 0.446 0.137 0.67 0.204l0.182 0.055c10.388 3.114 21.206 4.552 32.05 4.552h772.34c1.184-0.445 2.332-1.098 3.555-1.303 22.265-3.757 35.439-16.707 39.57-38.907a0.332 0.332 0 0 1 0.008-0.044c0.809-4.224 1.401-8.483 1.401-12.78zM510.413 322.592l394.336 331.874c-57.834 3.373-776.687 1.392-784.89-2.215 130.155-109.863 260.144-219.582 390.554-329.659z m116.976 39.468c-33.585-28.308-66.634-56.18-99.7-84.027-12.016-10.12-22.411-10.194-34.272-0.212-14.096 11.86-28.133 23.788-42.205 35.674-18.535 15.655-37.078 31.3-55.832 47.129L133.63 117.97c0.301-0.675 0.604-1.35 0.907-2.024H898.07L627.389 362.06z m-266.478 27.735c-84.588 71.467-168.29 142.182-252.933 213.696v-448.138l252.933 234.442z m301.082 1.414l250.97-228.152V602.642l-250.97-211.433z"  horiz-adv-x="1024" />

    
    <glyph glyph-name="yonghu" unicode="&#59119;" d="M1004.8-128H19.2c0 230.4 160 422.4 371.2 480-108.8 38.4-185.6 140.8-185.6 262.4C204.8 768 332.8 896 492.8 896s281.6-128 281.6-281.6c0-115.2-70.4-211.2-166.4-256 224-44.8 396.8-249.6 396.8-486.4z"  horiz-adv-x="1024" />

    
    <glyph glyph-name="zhanghumima" unicode="&#59002;" d="M839.4 527.2h-92.2v68c0 129.7-105.5 235.2-235.2 235.2S276.8 724.9 276.8 595.2v-68h-92.2c-18.1 0-32.8-14.7-32.8-32.8v-523.8c0-18.1 14.7-32.8 32.8-32.8h654.8c18.1 0 32.8 14.7 32.8 32.8V494.3c0.1 18.2-14.6 32.9-32.8 32.9z m-480.2 68c0 84.3 68.6 152.8 152.8 152.8s152.8-68.5 152.8-152.8v-68H359.2v68z m201.9-381.9v-95.5c0-27.1-22-49.1-49.1-49.1s-49.1 22-49.1 49.1v95.5c-29.2 17-49.1 48.4-49.1 84.6 0 54.3 44 98.3 98.3 98.3s98.3-44 98.3-98.3c-0.1-36.3-20-67.6-49.3-84.6z"  horiz-adv-x="1024" />

    
    <glyph glyph-name="youxiang1" unicode="&#59222;" d="M512 896C229.3 896 0 666.7 0 384s229.2-512 512-512 512 229.2 512 512S794.7 896 512 896z m264.5-665.5c0-39.2-31.8-71-71-71h-387c-39.2 0-71 31.8-71 71V466.7l258-137.3c4-2.1 8.7-2.1 12.7 0l258.3 137.5v-236.4z m0 291.3L511.9 377.6l-264.4 144v15.9c0 39.2 31.8 71 71 71h387c39.2 0 71-31.8 71-71v-15.7z"  horiz-adv-x="1024" />

    
    <glyph glyph-name="dianhua" unicode="&#58889;" d="M682.25 430.738c0-16.695 11.115-27.811 27.81-27.811s27.812 11.116 27.812 27.811A167.395 167.395 0 0 1 570.96 597.65c-16.695 0-27.811-11.116-27.811-27.811s11.16-27.812 27.811-27.812a111.597 111.597 0 0 0 111.29-111.289z m111.289 0c0-16.695 11.115-27.811 27.81-27.811s27.812 11.116 27.812 27.811c0 152.984-125.217 278.201-278.2 278.201-16.696 0-27.812-11.16-27.812-27.855s11.16-27.811 27.811-27.811c122.405 0 222.579-100.174 222.579-222.535zM417.976 528.1c30.623 30.579 33.391 77.898 5.58 111.289L337.31 747.866c-27.811 36.16-80.666 41.74-116.869 13.928-2.768-2.812-5.536-2.812-5.536-5.58l-75.13-75.13c-72.318-72.318 30.623-267.041 217.042-453.417C543.15 41.292 735.06-58.88 807.378 10.67l75.13 75.13c33.392 33.391 33.392 86.246 0 116.825l-5.536 5.58-108.52 86.246c-33.348 27.81-80.623 25.043-111.246-5.58l-47.275-47.319c-50.087 30.623-94.593 64.014-133.564 102.941-38.927 38.971-72.275 83.478-102.898 133.565l44.507 50.043z m-38.927 75.13c8.348-11.16 8.348-27.855-2.812-36.203l-61.202-63.97a29.569 29.569 0 0 1-5.536-33.392 721.425 721.425 0 0 1 122.405-164.1 721.512 721.512 0 0 1 164.1-122.405 29.569 29.569 0 0 1 33.39 5.58l63.971 63.97c11.16 11.116 25.043 11.116 36.203 2.769l108.477-89.014s2.768 0 2.768-2.768a26.889 26.889 0 0 0 0-38.971l-75.13-75.13c-36.115-36.115-208.606 55.666-372.75 217.042-164.1 161.332-253.114 336.548-216.955 372.75l77.854 77.899c11.16 8.348 30.623 8.348 38.971-5.58l86.246-108.521z"  horiz-adv-x="1024" />

    
    <glyph glyph-name="yuechi" unicode="&#58893;" d="M703.43792 896a328.431204 328.431204 0 0 1-327.92423-327.924229 318.534183 318.534183 0 0 1 6.612709-64.694335l2.975719-15.605993L0 102.563113v-230.563113h269.181333v133.841226h125.641467v125.641467h124.186671v126.41295h42.387464v11.902876l38.662304-12.652316a317.542277 317.542277 0 0 1 101.8798-16.355433A327.571552 327.571552 0 0 1 703.415877 895.911831z m122.68779-274.38333a69.146892 69.146892 0 1 0-69.146891 69.146891 69.499569 69.499569 0 0 0 69.146891-69.146891z"  horiz-adv-x="1030" />

    
    <glyph glyph-name="dianhua1" unicode="&#58936;" d="M1082.375 896c-282.93 0-512-229.07-512-512s229.07-512 512-512 512 229.07 512 512-229.07 512-512 512zM1328.4 146.618c-7.98-19.283-23.606-32.914-51.533-49.205l-21.943-12.966c-64.498-39.896-212.779 51.2-319.169 207.46-106.722 156.26-134.649 323.158-69.153 363.719l8.644 5.652 9.31 5.984c33.246 21.278 54.192 29.922 79.46 25.6 24.934-4.322 46.545-22.94 64.498-56.52 37.901-71.48 29.59-105.391-19.283-136.31-3.657-2.328-15.959-9.975-17.289-10.64-11.968-7.314 8.312-57.184 55.523-126.337 48.207-70.816 88.103-109.05 101.402-100.738l17.288 10.639c5.652 3.657 11.637 6.65 17.954 9.641 38.898 17.621 73.475 5.32 118.69-47.875 28.26-32.914 36.572-62.171 25.6-88.104z"  horiz-adv-x="2291" />

    
    <glyph glyph-name="zhanghaoguanli" unicode="&#58906;" d="M691.754667 316.16A384.128 384.128 0 0 0 938.666667-42.666667a42.666667 42.666667 0 0 0-42.666667-42.666666H128a42.666667 42.666667 0 0 0-42.666667 42.666666 384.128 384.128 0 0 0 246.912 358.826667 298.666667 298.666667 0 1 0 359.509334 0zM554.666667 256h-85.333334a298.752 298.752 0 0 1-295.68-256h676.693334A298.752 298.752 0 0 1 554.666667 256z m-42.666667 85.333333a213.333333 213.333333 0 1 1 0 426.666667 213.333333 213.333333 0 0 1 0-426.666667z"  horiz-adv-x="1024" />

    
    <glyph glyph-name="tuichu" unicode="&#58910;" d="M496.64-128C236.4928-128 25.6 79.7184 25.6 335.9744 25.6 529.92 146.432 696.1152 317.952 765.3376v-0.1024a49.92 49.92 0 0 0 16.2304 2.7136c26.88 0 48.8448-21.504 48.8448-47.9744a48.0768 48.0768 0 0 0-32.5632-45.2608c-133.5808-56.0128-227.3792-186.5728-227.3792-338.7392 0-203.264 167.168-367.9744 373.5552-367.9744 206.336 0 373.5552 164.864 373.5552 367.9744 0 152.064-93.696 282.7264-227.3792 338.7392a47.9232 47.9232 0 0 0-32.4096 45.2608c0 26.5728 21.7088 47.9744 48.64 47.9744 5.7344 0 11.0592-0.9728 16.2816-2.7136v0.1024c171.5712-69.3248 292.352-235.4176 292.352-429.3632C967.68 79.7184 756.7872-128 496.64-128z m0 495.9232a48.4352 48.4352 0 0 0-48.64 48.0768V848.0256C448 874.496 469.76 896 496.64 896c26.9312 0 48.64-21.504 48.64-47.9744v-431.9232c0-26.624-21.7088-48.1792-48.64-48.1792z"  horiz-adv-x="1024" />

    
    <glyph glyph-name="examine" unicode="&#59049;" d="M399.872 22.015999999999963H123.904v727.04h403.968l178.176-178.176v-97.28c0-25.088 20.48-46.08 46.08-46.08s46.08 20.48 46.08 46.08V589.312c0 12.288-4.608 23.552-13.312 32.256l-204.8 204.8c-8.704 8.704-19.968 13.312-32.256 13.312H123.392c-50.688 0-91.648-40.96-91.648-91.648v-727.04c0-50.688 40.96-91.648 91.648-91.648h276.48c25.088 0 46.08 20.48 46.08 46.08s-20.992 46.592-46.08 46.592zM581.632 558.0799999999999c0 25.088-20.48 46.08-46.08 46.08H203.264c-25.088 0-46.08-20.48-46.08-46.08s20.48-46.08 46.08-46.08h332.288c25.088 0.512 46.08 20.992 46.08 46.08zM203.264 406.016c-25.088 0-46.08-20.48-46.08-46.08 0-25.088 20.48-46.08 46.08-46.08h153.088c25.088 0 46.08 20.48 46.08 46.08 0 25.088-20.48 46.08-46.08 46.08H203.264zM1004.032 192.51199999999994c-66.048 139.264-166.912 209.92-300.544 209.92s-235.008-70.656-300.544-209.92c-6.144-13.312-6.144-28.16 0-41.472 66.048-139.264 166.912-209.92 300.544-209.92s235.008 70.656 300.544 209.92c6.656 12.8 6.656 28.16 0 41.472z m-163.328-143.36c-18.944-13.312-39.936-23.552-62.464-30.208-23.04-6.656-48.128-10.24-74.752-10.24-26.624 0-51.712 3.584-74.752 10.24-22.528 6.656-43.52 16.896-62.464 30.208-19.456 13.824-37.888 31.232-54.784 52.224-15.872 19.968-30.208 43.52-43.52 70.144 13.312 26.624 27.648 50.176 43.52 70.144 16.384 20.992 34.816 38.4 54.784 52.224 18.944 13.312 39.936 23.552 62.464 30.208 23.04 6.656 48.128 10.24 74.752 10.24 26.624 0 51.712-3.584 74.752-10.24 22.528-6.656 43.52-16.896 62.464-30.208 19.456-13.824 37.888-31.232 54.784-52.224 15.872-19.968 30.208-43.52 43.52-70.144-12.8-26.624-27.648-50.176-43.52-70.144-16.384-20.992-34.816-38.4-54.784-52.224zM777.216 245.24800000000005c-9.728 9.728-20.48 16.896-33.28 22.528-25.6 10.752-55.296 10.752-80.896 0-12.288-5.12-23.552-12.8-33.28-22.528-9.728-9.728-16.896-20.48-22.528-33.28-5.632-12.8-8.192-26.624-8.192-40.448s2.56-27.648 8.192-40.448c5.12-12.288 12.8-23.552 22.528-33.28 9.728-9.728 20.48-16.896 33.28-22.528 12.8-5.632 26.624-8.192 40.448-8.192s27.648 2.56 40.448 8.192c12.288 5.12 23.552 12.8 33.28 22.528 9.728 9.728 16.896 20.48 22.528 33.28 5.632 12.8 8.192 26.624 8.192 40.448s-2.56 27.648-8.192 40.448-13.312 24.064-22.528 33.28z m-28.16-73.728c0-25.088-20.48-45.568-45.568-45.568s-45.568 20.48-45.568 45.568 20.48 45.568 45.568 45.568 45.568-20.48 45.568-45.568z"  horiz-adv-x="1024" />

    
    <glyph glyph-name="sousuo" unicode="&#58947;" d="M888.703059 48.841637 733.373365 204.173378c50.040696 59.650565 80.190367 136.551002 80.190367 220.507136 0 189.613522-153.703661 343.318206-343.31616 343.318206-189.616592 0-343.31923-153.703661-343.31923-343.318206s153.703661-343.318206 343.31923-343.318206c85.053118 0 162.867368 30.94171 222.838228 82.163301l155.141406-155.141406c11.174504-11.17655 29.300326-11.17655 40.47483 0C899.859144 19.559731 899.859144 37.665087 888.703059 48.841637zM470.248595 138.583544c-158.006663 0-286.10004 128.090307-286.10004 286.097994 0 158.006663 128.093377 286.099017 286.10004 286.099017s286.079574-128.093377 286.079574-286.099017C756.32817 266.673851 628.254236 138.583544 470.248595 138.583544z"  horiz-adv-x="1024" />

    
    <glyph glyph-name="xiugai" unicode="&#58948;" d="M653.425428 123.1872c0-20.1728 16.384-36.5568 36.5568-36.5568h292.7616c20.1728 0 36.5568 16.384 36.5568 36.5568 0 20.1728-16.384 36.5568-36.5568 36.5568h-292.7616c-20.1728-0.1024-36.5568-16.384-36.5568-36.5568zM987.454228-54.8864h-585.1136c-20.1728 0-36.5568-16.384-36.5568-36.5568s16.384-36.5568 36.5568-36.5568h585.1136c20.1728 0 36.5568 16.384 36.5568 36.5568s-16.384 36.5568-36.5568 36.5568zM806.615828 672.3584C823.819028 695.7056 818.801428 728.576 795.454228 745.7792L605.399828 885.76c-23.3472 17.2032-56.2176 12.1856-73.4208-11.1616l-15.5648-21.0944 274.6368-202.3424 15.5648 21.1968zM0.113428-105.6768c-1.536-14.7456 12.8-25.4976 26.5216-19.5584 16.384 7.168 170.1888 74.24 241.8688 105.5744l-239.2064 176.2304c-9.0112-79.5648-27.8528-249.344-29.184-262.2464zM494.603028 824.0128l-442.1632-599.8592 274.6368-202.3424 442.1632 599.8592L494.603028 824.0128z m-144.7936-664.8832c-10.24-14.2336-30.1056-17.5104-44.3392-7.2704-14.2336 10.24-17.408 30.1056-7.168 44.3392l297.5744 412.672c10.24 14.2336 30.1056 17.5104 44.3392 7.168 14.2336-10.24 17.408-30.1056 7.168-44.3392l-297.5744-412.5696z"  horiz-adv-x="1024" />

    
    <glyph glyph-name="shangchuanxiangshangjiantou" unicode="&#58881;" d="M515.6-14.200000000000045c-220.5 0-400 179.5-400 400s179.5 400 400 400 400-179.5 400-400-179.5-400-400-400z m0 752.9c-194.6 0-352.9-158.3-352.9-352.9S321 32.89999999999998 515.6 32.89999999999998s352.9 158.3 352.9 352.9-158.3 352.9-352.9 352.9zM515.6 150.5c-13 0-23.5 10.5-23.5 23.5V597.2c0 13 10.5 23.5 23.5 23.5s23.5-10.5 23.5-23.5V174c0-13-10.5-23.5-23.5-23.5zM656.7 432.9c-6 0-12 2.3-16.6 6.9L515.6 564.3 391 439.8c-9.2-9.2-24.1-9.2-33.3 0-9.2 9.2-9.2 24.1 0 33.3l141.2 141.2c9.2 9.2 24.1 9.2 33.3 0l141.2-141.2c9.2-9.2 9.2-24.1 0-33.3-4.6-4.6-10.6-6.9-16.7-6.9z"  horiz-adv-x="1024" />

    
    <glyph glyph-name="xinzeng" unicode="&#58927;" d="M512-128C229.2224-128 0 101.2224 0 384S229.2224 896 512 896s512-229.2224 512-512-229.2224-512-512-512z m0 102.4a409.6 409.6 0 1 1 0 819.2 409.6 409.6 0 0 1 0-819.2zM768 435.2v-102.4H256V435.2zM460.8 640h102.4v-512H460.8z"  horiz-adv-x="1024" />

    
    <glyph glyph-name="zhanghu" unicode="&#59387;" d="M606.3616 553.792a40.128 40.128 0 0 0 2.048-45.056c-29.44-44.992-72.64-74.112-110.464-74.112a153.408 153.408 0 0 0-134.784 74.368 40.128 40.128 0 0 0 1.792 44.8 19.2 19.2 0 0 0 32.768-2.304c21.056-34.176 58.88-54.4 98.944-52.928a105.088 105.088 0 0 1 76.736 52.672 19.2 19.2 0 0 0 32.96 2.56z m363.136-542.912c7.168-46.592 8.192-138.88-94.08-138.88H121.4976c-146.56 0-120.96 92.544-117.888 138.88a519.68 519.68 0 0 0 319.424 318.336 306.88 306.88 0 1 0 331.136 3.072 511.424 511.424 0 0 0 315.328-321.408zM256.2816 588.032a230.144 230.144 0 1 1 460.288 0 230.144 230.144 0 0 1-460.288 0z m635.52-637.504c5.12 13.696 6.4 28.544 3.84 42.944A426.816 426.816 0 0 1 499.2256 281.152h-15.36a440.64 440.64 0 0 1-406.592-286.4v-6.656a164.48 164.48 0 0 1 0-33.984c14.208-4.992 29.248-7.04 44.224-5.888h753.92a36.8 36.8 0 0 1 16.384 2.304z"  horiz-adv-x="1024" />

    
    <glyph glyph-name="wenhao" unicode="&#58894;" d="M497.777778 867.555556C756.992 867.555556 967.111111 657.436444 967.111111 398.222222S756.992-71.111111 497.777778-71.111111 28.444444 139.008 28.444444 398.222222 238.563556 867.555556 497.777778 867.555556z m0-85.333334C285.696 782.222222 113.777778 610.304 113.777778 398.222222S285.696 14.222222 497.777778 14.222222 881.777778 186.140444 881.777778 398.222222 709.859556 782.222222 497.777778 782.222222z m-13.880889-564.167111c16.782222 0 31.288889-5.404444 42.609778-16.725333 10.951111-10.979556 16.725333-25.031111 16.725333-41.130667 0-17.123556-5.973333-31.345778-17.92-42.296889a59.534222 59.534222 0 0 0-41.415111-16.298666c-15.872 0-29.696 5.575111-41.870222 16.725333-11.377778 11.377778-16.725333 25.258667-16.725334 41.870222 0 16.839111 5.489778 30.833778 16.725334 41.130667 11.377778 11.377778 25.258667 16.725333 41.870222 16.725333zM494.990222 668.444444c51.171556 0 92.16-13.994667 123.505778-42.951111 30.577778-28.103111 46.023111-66.787556 46.023111-114.744889 0-36.067556-10.439111-67.982222-31.402667-95.630222l-4.039111-4.551111c-7.850667-8.533333-21.333333-21.447111-39.68-38.087111l-17.806222-15.957333c-14.677333-12.686222-24.888889-24.718222-31.829333-37.148445a86.869333 86.869333 0 0 1-11.889778-40.220444l-0.170667-6.542222v-31.232h-87.608889v31.232c0 26.453333 4.864 50.005333 14.648889 70.343111 11.377778 24.462222 36.977778 53.816889 77.511111 89.856l16.611556 16.839111c3.640889 3.84 5.774222 6.314667 7.509333 8.590222 12.913778 16.156444 19.057778 32.312889 19.057778 49.550222 0 25.486222-7.224889 44.970667-21.191111 58.936889-13.738667 14.336-34.133333 21.504-62.208 21.504-32.910222 0-55.808-10.069333-70.912-30.805333-12.970667-16.497778-20.110222-38.968889-21.219556-68.124445l-0.142222-8.135111v-14.222222H312.888889v14.222222c0 55.751111 15.559111 100.465778 47.331555 133.802667C392.647111 650.666667 437.930667 668.444444 494.990222 668.444444z"  horiz-adv-x="1024" />

    
    <glyph glyph-name="zhanghao" unicode="&#58887;" d="M923.52 48.896H539.136c-12.352 0-22.208 9.28-22.208 20.8 0 11.52 9.856 20.8 22.208 20.8h384.384c12.288 0 22.144-9.216 22.144-20.8 0-11.52-9.856-20.8-22.144-20.8z m0 140.928H539.136c-12.352 0-22.208 9.216-22.208 20.8 0 11.52 9.856 20.8 22.208 20.8h384.384c12.288 0 22.144-9.28 22.144-20.8 0-11.52-9.856-20.8-22.144-20.8z m-290.752 177.92c76.352-18.56 103.488-48.576 103.488-48.576a31.424 31.424 0 0 0 4.928-13.824 25.344 25.344 0 0 0-7.424-18.56 29.056 29.056 0 0 0-19.712-6.848 37.376 37.376 0 0 0-17.28 4.608c-56.64 30.016-120.704 43.904-187.2 43.904-216.832 0-389.312-164.032-389.312-364.992v-30.08c0-13.824-12.352-25.408-27.136-25.408-14.784 0-24.64 11.584-24.64 25.472v30.016c0 191.744 137.984 353.408 327.68 401.92C310.016 404.672 250.88 487.808 250.88 584.832 248.384 721.152 366.656 832 512 832c145.408 0 261.184-110.912 261.184-244.864 0-97.024-56.64-177.92-140.416-219.456zM512 790.4c-120.704 0-219.264-92.352-219.264-205.568 0-113.216 98.56-205.568 219.264-205.568 120.768 0 219.328 92.352 219.328 205.568 0 115.52-98.56 205.568-219.328 205.568z m27.136-840.832h384.384c12.288 0 22.144-9.216 22.144-20.8 0-11.52-9.856-20.8-22.144-20.8H539.136c-12.352 0-22.208 9.28-22.208 20.8 0 11.52 9.856 20.8 22.208 20.8z"  horiz-adv-x="1024" />

    
    <glyph glyph-name="neirong" unicode="&#58895;" d="M949.629687 553.836083 799.273261 403.513426c-33.189913-33.223682-87.054705-33.223682-120.277364 0L528.674263 553.836083c-33.221636 33.222659-33.221636 87.083357 0 120.262014L678.995897 824.464757c33.222659 33.221636 87.087451 33.221636 120.277364 0l150.356426-150.365636C982.84723 640.919441 982.84723 587.058742 949.629687 553.836083L949.629687 553.836083zM923.527193 664.251845 789.444405 798.354076c-27.800159 27.734668-72.821539 27.734668-100.588953 0L554.770618 664.251845c-27.767414-27.734668-27.767414-72.786747 0-100.556207L688.854429 429.6282c27.767414-27.783787 72.788793-27.783787 100.588953 0l134.082788 134.068462C951.294606 591.465099 951.294606 636.463965 923.527193 664.251845L923.527193 664.251845zM377.69669-45.151084 165.073104-45.151084c-46.987151 0-85.064374 38.077224-85.064374 85.042885L80.00873 252.52255c0 46.953382 38.0762 85.042885 85.064374 85.042885l212.622562 0c46.952358 0 85.029582-38.09155 85.029582-85.042885l0-212.629725C462.725248-7.07386 424.649048-45.151084 377.69669-45.151084L377.69669-45.151084zM377.69669 422.615483 165.073104 422.615483c-46.987151 0-85.064374 38.077224-85.064374 85.042885L80.00873 720.269673c0 46.982034 38.0762 85.063351 85.064374 85.063351l212.622562 0c46.952358 0 85.029582-38.081317 85.029582-85.063351l0-212.610282C462.725248 460.692706 424.649048 422.615483 377.69669 422.615483L377.69669 422.615483zM632.824321 337.566458l212.624609 0c46.981011 0 85.059258-38.09155 85.059258-85.042885l0-212.629725c0-46.965661-38.078247-85.042885-85.059258-85.042885L632.824321-45.149037c-46.957475 0-85.033675 38.077224-85.033675 85.042885L547.790646 252.52255C547.790646 299.475931 585.866846 337.566458 632.824321 337.566458L632.824321 337.566458z"  horiz-adv-x="1024" />

    
    <glyph glyph-name="yonghushezhi" unicode="&#59113;" d="M694.044444 304.355556c-45.511111 0-73.955556 34.133333-73.955555 79.644444 0 39.822222 34.133333 79.644444 73.955555 79.644444 45.511111 0 73.955556-34.133333 73.955556-79.644444 5.688889-39.822222-28.444444-79.644444-73.955556-79.644444z m125.155556 51.2h102.4c17.066667 0 28.444444 11.377778 28.444444 28.444444s-11.377778 28.444444-28.444444 28.444444h-102.4l-5.688889 5.688889c-17.066667 56.888889-68.266667 96.711111-125.155555 96.711111-73.955556 0-130.844444-56.888889-130.844445-125.155555 0-68.266667 62.577778-125.155556 130.844445-125.155556 68.266667-5.688889 119.466667 28.444444 130.844444 91.022223zM329.955556 605.866667c-45.511111 0-73.955556 34.133333-73.955556 73.955555S284.444444 748.088889 329.955556 748.088889 398.222222 713.955556 398.222222 679.822222s-28.444444-73.955556-68.266666-73.955555z m130.844444 73.955555c0 68.266667-62.577778 125.155556-130.844444 125.155556-62.577778 0-108.088889-34.133333-125.155556-96.711111h-113.777778c-17.066667 0-28.444444-11.377778-28.444444-28.444445s11.377778-28.444444 28.444444-28.444444h102.4l5.688889-5.688889c17.066667-56.888889 62.577778-96.711111 119.466667-96.711111C398.222222 548.977778 460.8 611.555556 460.8 679.822222zM329.955556 19.911111c-39.822222 0-68.266667 34.133333-68.266667 68.266667S290.133333 156.444444 329.955556 156.444444s68.266667-34.133333 68.266666-68.266666c5.688889-34.133333-28.444444-68.266667-68.266666-68.266667zM455.111111 88.177778C455.111111 156.444444 403.911111 213.333333 335.644444 213.333333c-62.577778 0-113.777778-39.822222-125.155555-91.022222l-5.688889-5.688889h-113.777778c-17.066667 0-28.444444-11.377778-28.444444-28.444444s11.377778-28.444444 28.444444-28.444445h108.088889l5.688889-5.688889c17.066667-56.888889 62.577778-96.711111 119.466667-96.711111 79.644444 5.688889 130.844444 62.577778 130.844444 130.844445zM506.311111 384c0 17.066667-11.377778 28.444444-28.444444 28.444444H91.022222c-17.066667 0-28.444444-11.377778-28.444444-28.444444s11.377778-28.444444 28.444444-28.444444h386.844445c17.066667 0 28.444444 11.377778 28.444444 28.444444z m11.377778 295.822222c0-17.066667 11.377778-28.444444 28.444444-28.444444h386.844445c17.066667 0 28.444444 11.377778 28.444444 28.444444s-11.377778 28.444444-28.444444 28.444445H546.133333c-17.066667 0-28.444444-11.377778-28.444444-28.444445z m0-591.644444c0-17.066667 11.377778-28.444444 28.444444-28.444445h386.844445c17.066667 0 28.444444 11.377778 28.444444 28.444445s-11.377778 28.444444-28.444444 28.444444H546.133333c-17.066667 0-28.444444-11.377778-28.444444-28.444444z"  horiz-adv-x="1024" />

    
    <glyph glyph-name="shousuo" unicode="&#58884;" d="M911.2 228H400.8c-24.8 0-44.8 21.6-44.8 48s20 48 44.8 48h510.4c24.8 0 44.8-21.6 44.8-48s-20-48-44.8-48z m0 224H400.8c-24.8 0-44.8 21.6-44.8 48s20 48 44.8 48h510.4c24.8 0 44.8-21.6 44.8-48s-20-48-44.8-48zM908 668H124c-26.4 0-48 21.6-48 48s21.6 48 48 48h784c26.4 0 48-21.6 48-48s-21.6-48-48-48zM300 228L76 388l224 160v-320zM124 108h784c26.4 0 48-21.6 48-48s-21.6-48-48-48H124c-26.4 0-48 21.6-48 48s21.6 48 48 48z"  horiz-adv-x="1024" />

    
    <glyph glyph-name="tongjifenxi" unicode="&#58908;" d="M210.387227 328.934759l32.215544 44.049826 24.983484-79.55267 41.419985 6.903331 108.480914 159.10534 131.820747-113.740595h37.803955l209.072307 236.028171 41.091256-41.419985 18.408882 131.492017-136.094238-12.163012 37.146495-37.803955-187.047394-218.934208-138.395348 119.329005-43.721096-5.58841-110.124564-159.105341-24.654753 79.55267-41.091256-6.903331-48.980776-67.718388zM0.32873 729.327951v-517.092357a167.882433 167.882433 0 0 1 169.295972-166.666131h242.274041v-115.712975H264.627684a28.139292 28.139292 0 0 1-28.270783-27.613324 30.243164 30.243164 0 0 1 28.270783-30.243164h549.636632a30.013053 30.013053 0 0 1 28.270783 30.243164 27.909181 27.909181 0 0 1-28.270783 27.613324h-137.737888v115.712975h232.74087a167.882433 167.882433 0 0 1 169.295972 166.666131V729.327951a167.882433 167.882433 0 0 1-169.295972 166.666132H169.624702A167.882433 167.882433 0 0 1 0.32873 729.327951zM78.89521 690.209076a139.808887 139.808887 0 0 0 140.696458 138.724078h639.708663a139.808887 139.808887 0 0 0 140.696459-138.724078v-466.46793c0-76.5941-63.116168-100.262663-140.696459-100.262663H219.591668c-77.58029 0-140.696458 23.668563-140.696458 100.262663V690.209076z m0 0"  horiz-adv-x="1079" />

    
    <glyph glyph-name="guanliyuan" unicode="&#58971;" d="M876.074667 126.976c5.12-34.816 34.816-29.696 39.936-45.056 0-9.728-5.12-45.056-19.968-49.664-14.848 0-34.816 5.12-49.664 0-9.728-5.12-19.968-9.728-25.088-19.968-9.728-25.088 9.728-45.056 0-54.784-14.848-9.728-45.056-25.088-54.784-14.848-14.848 14.848-14.848 34.816-45.056 34.816-39.936 0-39.936-39.936-59.904-39.936-19.968 0-54.784 14.848-54.784 29.696 5.12 19.968 14.848 34.816-5.12 54.784-25.088 19.968-54.784 0-65.024 9.728-14.848 9.728-19.968 34.816-14.848 49.664 5.12 14.848 39.936 14.848 39.936 54.784 0 29.696-34.816 34.816-39.936 54.784-5.12 14.848 5.12 39.936 19.968 45.056 25.088 9.728 39.936-9.728 65.024 9.728 14.848 14.848 9.728 49.664 9.728 59.904 5.12 14.848 25.088 19.968 39.936 19.968 29.696 0 19.968-34.816 59.904-39.936 39.936 0 34.816 14.848 54.784 39.936 25.088 0 45.056-9.728 49.664-19.968 9.728-19.968-9.728-49.664 19.968-69.632 25.088-14.848 49.664 5.12 65.024 0 9.728-5.12 14.848-19.968 19.968-39.936-9.728-29.184-54.784-24.064-49.664-69.12z m-179.712 99.84c-119.808-29.696-74.752-204.288 39.936-184.832 115.2 25.088 99.84 209.92-39.936 184.832z m-205.482667 176.981333c-119.125333 0-213.333333 94.165333-213.333333 213.333334 0 119.125333 94.208 213.333333 213.333333 213.333333s213.333333-94.208 213.333333-213.333333c0-114.048-94.208-213.333333-213.333333-213.333334z m175.786667-52.053333s-79.872 0-74.752-54.784c5.12-59.904-74.752-14.848-89.6-65.024-19.968-59.904 9.728-49.664 25.088-89.6 9.728-25.088-39.936-39.936-34.816-84.992 9.728-59.904 59.904-29.696 74.752-65.024 9.728-29.696-25.088-49.664-104.96-49.664-65.024 0-189.44 0-234.496 5.12 0 0-129.536 5.12-129.536 89.6 0 0-5.12 124.928 74.752 214.528 0 0 84.992 109.568 229.376 109.568l264.192-9.728z"  horiz-adv-x="1024" />

    
    <glyph glyph-name="wenxianfuwu" unicode="&#58943;" d="M758.352842 711.194947H943.157895V33.684211a123.203368 123.203368 0 0 0-123.203369-123.203369H204.045474A123.203368 123.203368 0 0 0 80.842105 33.684211V772.796632A123.203368 123.203368 0 0 0 204.045474 896h615.909052c44.032 0 84.668632-23.498105 106.711579-61.601684H204.045474a61.601684 61.601684 0 1 1 0-123.203369h431.157894-61.601684v-408.791579l123.203369 100.837053 123.149473-100.783158V711.141053h-61.601684v-307.954527L696.858947 464.842105l-61.601684-61.601684V711.194947h123.149474z"  horiz-adv-x="1024" />

    


  </font>
</defs>
</svg>
